<svg aria-hidden="true" style="position:absolute;width:0;height:0" xmlns="http://www.w3.org/2000/svg" overflow="hidden"><defs><symbol id="icon-Calendar" viewBox="0 0 32 32"><path d="M30 4a2 2 0 012 2v24a2 2 0 01-2 2H2a2 2 0 01-2-2V6a2 2 0 012-2h4V0h6v4h8V0h6v4h4zm-2 24V10H4v18h24zM8 14h4v4H8v-4zm6 0h4v4h-4v-4z"/></symbol><symbol id="icon-logotype" viewBox="0 0 32 32"><path d="M25.21 32H6.79a3.461 3.461 0 01-3.457-3.457V3.457A3.461 3.461 0 016.79 0h18.42a3.461 3.461 0 013.457 3.457v18.765a.889.889 0 11-1.778 0V3.457a1.68 1.68 0 00-1.679-1.679H6.79a1.68 1.68 0 00-1.679 1.679v25.087a1.68 1.68 0 001.679 1.679h18.42a1.68 1.68 0 001.679-1.679v-1.877a.889.889 0 111.778 0v1.877a3.461 3.461 0 01-3.457 3.457z"/><path d="M23.022 12.444H8.978A.978.978 0 018 11.466V6.31c0-.54.438-.978.978-.978h14.044c.54 0 .978.438.978.978v5.156c0 .54-.438.978-.978.978z"/><path d="M23.022 13.333H8.978a1.87 1.87 0 01-1.867-1.867V6.31a1.87 1.87 0 011.867-1.867h14.044a1.87 1.87 0 011.867 1.867v5.156a1.87 1.87 0 01-1.867 1.867zM8.978 6.222a.09.09 0 00-.089.089v5.156c0 .049.04.089.089.089h14.044a.09.09 0 00.089-.089V6.311a.09.09 0 00-.089-.089H8.978zm10.261 13.865h-.001a.889.889 0 01-.627-1.517l2.975-2.975a.889.889 0 011.257 1.257l-2.975 2.975a.881.881 0 01-.628.26h-.001z"/><path d="M22.213 20.087h-.001a.885.885 0 01-.627-.26l-2.975-2.975a.889.889 0 011.257-1.257l2.975 2.975a.889.889 0 01-.628 1.517h-.001zm-8.836 6.212H9.17a.889.889 0 110-1.778h4.207a.889.889 0 110 1.778z"/><path d="M11.274 28.403a.889.889 0 01-.889-.889v-4.207a.889.889 0 111.778 0v4.207a.889.889 0 01-.889.889zm2.103-9.803H9.17a.889.889 0 110-1.778h4.207a.889.889 0 110 1.778zm9.452 6.366h-4.207a.889.889 0 110-1.778h4.207a.889.889 0 110 1.778zm0 2.667h-4.207a.889.889 0 110-1.778h4.207a.889.889 0 110 1.778z"/></symbol></defs></svg>